<mxfile host="Electron" modified="2024-02-22T00:32:32.703Z" agent="Mozilla/5.0 (X11; Linux x86_64) AppleWebKit/537.36 (KHTML, like Gecko) draw.io/23.1.5 Chrome/120.0.6099.109 Electron/28.1.0 Safari/537.36" etag="1Hv1gz5gr8PWJSeddleo" version="23.1.5" type="device">
  <diagram name="PÃ¡gina-1" id="GxvnJgUSQZcXeYqM5Sgc">
    <mxGraphModel dx="2876" dy="869" grid="1" gridSize="10" guides="1" tooltips="1" connect="1" arrows="1" fold="1" page="1" pageScale="1" pageWidth="827" pageHeight="1169" math="0" shadow="0">
      <root>
        <mxCell id="0" />
        <mxCell id="1" parent="0" />
        <mxCell id="CMQdmwLlExtstiq8UbgP-35" value="" style="edgeStyle=orthogonalEdgeStyle;rounded=0;orthogonalLoop=1;jettySize=auto;html=1;" edge="1" parent="1" source="CMQdmwLlExtstiq8UbgP-1" target="CMQdmwLlExtstiq8UbgP-4">
          <mxGeometry relative="1" as="geometry" />
        </mxCell>
        <mxCell id="CMQdmwLlExtstiq8UbgP-1" value="Fiesta XV" style="rounded=1;whiteSpace=wrap;html=1;" vertex="1" parent="1">
          <mxGeometry x="354" y="30" width="120" height="30" as="geometry" />
        </mxCell>
        <mxCell id="CMQdmwLlExtstiq8UbgP-38" value="" style="edgeStyle=orthogonalEdgeStyle;rounded=0;orthogonalLoop=1;jettySize=auto;html=1;" edge="1" parent="1" source="CMQdmwLlExtstiq8UbgP-2" target="CMQdmwLlExtstiq8UbgP-36">
          <mxGeometry relative="1" as="geometry" />
        </mxCell>
        <mxCell id="CMQdmwLlExtstiq8UbgP-2" value="fecha" style="shape=parallelogram;perimeter=parallelogramPerimeter;whiteSpace=wrap;html=1;fixedSize=1;" vertex="1" parent="1">
          <mxGeometry x="354" y="200" width="120" height="30" as="geometry" />
        </mxCell>
        <mxCell id="CMQdmwLlExtstiq8UbgP-6" value="" style="edgeStyle=orthogonalEdgeStyle;rounded=0;orthogonalLoop=1;jettySize=auto;html=1;" edge="1" parent="1" source="CMQdmwLlExtstiq8UbgP-4" target="CMQdmwLlExtstiq8UbgP-2">
          <mxGeometry relative="1" as="geometry" />
        </mxCell>
        <mxCell id="CMQdmwLlExtstiq8UbgP-4" value="Porfavor agregar una fecha para lo XV" style="rounded=1;whiteSpace=wrap;html=1;" vertex="1" parent="1">
          <mxGeometry x="354" y="110" width="120" height="60" as="geometry" />
        </mxCell>
        <mxCell id="CMQdmwLlExtstiq8UbgP-22" value="" style="edgeStyle=orthogonalEdgeStyle;rounded=0;orthogonalLoop=1;jettySize=auto;html=1;" edge="1" parent="1" source="CMQdmwLlExtstiq8UbgP-10" target="CMQdmwLlExtstiq8UbgP-21">
          <mxGeometry relative="1" as="geometry" />
        </mxCell>
        <mxCell id="CMQdmwLlExtstiq8UbgP-10" value="Buscar lugares para el evento" style="rounded=1;whiteSpace=wrap;html=1;" vertex="1" parent="1">
          <mxGeometry x="34" y="410" width="120" height="37" as="geometry" />
        </mxCell>
        <mxCell id="CMQdmwLlExtstiq8UbgP-33" value="" style="edgeStyle=orthogonalEdgeStyle;rounded=0;orthogonalLoop=1;jettySize=auto;html=1;" edge="1" parent="1" source="CMQdmwLlExtstiq8UbgP-11" target="CMQdmwLlExtstiq8UbgP-32">
          <mxGeometry relative="1" as="geometry" />
        </mxCell>
        <mxCell id="CMQdmwLlExtstiq8UbgP-11" value="dirreccion" style="shape=parallelogram;perimeter=parallelogramPerimeter;whiteSpace=wrap;html=1;fixedSize=1;rounded=1;" vertex="1" parent="1">
          <mxGeometry x="-130" y="607" width="120" height="30" as="geometry" />
        </mxCell>
        <mxCell id="CMQdmwLlExtstiq8UbgP-57" value="" style="edgeStyle=orthogonalEdgeStyle;rounded=0;orthogonalLoop=1;jettySize=auto;html=1;" edge="1" parent="1" source="CMQdmwLlExtstiq8UbgP-14" target="CMQdmwLlExtstiq8UbgP-56">
          <mxGeometry relative="1" as="geometry" />
        </mxCell>
        <mxCell id="CMQdmwLlExtstiq8UbgP-14" value="Hora" style="shape=parallelogram;perimeter=parallelogramPerimeter;whiteSpace=wrap;html=1;fixedSize=1;" vertex="1" parent="1">
          <mxGeometry x="-130" y="712" width="120" height="30" as="geometry" />
        </mxCell>
        <mxCell id="CMQdmwLlExtstiq8UbgP-24" value="" style="edgeStyle=orthogonalEdgeStyle;rounded=0;orthogonalLoop=1;jettySize=auto;html=1;" edge="1" parent="1" source="CMQdmwLlExtstiq8UbgP-21" target="CMQdmwLlExtstiq8UbgP-23">
          <mxGeometry relative="1" as="geometry" />
        </mxCell>
        <mxCell id="CMQdmwLlExtstiq8UbgP-25" value="SI" style="edgeLabel;html=1;align=center;verticalAlign=middle;resizable=0;points=[];" vertex="1" connectable="0" parent="CMQdmwLlExtstiq8UbgP-24">
          <mxGeometry x="-0.2187" y="-4" relative="1" as="geometry">
            <mxPoint as="offset" />
          </mxGeometry>
        </mxCell>
        <mxCell id="CMQdmwLlExtstiq8UbgP-27" value="" style="edgeStyle=orthogonalEdgeStyle;rounded=0;orthogonalLoop=1;jettySize=auto;html=1;entryX=1;entryY=0.5;entryDx=0;entryDy=0;" edge="1" parent="1" source="CMQdmwLlExtstiq8UbgP-21" target="CMQdmwLlExtstiq8UbgP-10">
          <mxGeometry relative="1" as="geometry">
            <mxPoint x="194" y="517" as="targetPoint" />
            <Array as="points">
              <mxPoint x="174" y="517" />
              <mxPoint x="174" y="430" />
              <mxPoint x="154" y="430" />
            </Array>
          </mxGeometry>
        </mxCell>
        <mxCell id="CMQdmwLlExtstiq8UbgP-28" value="NO" style="edgeLabel;html=1;align=center;verticalAlign=middle;resizable=0;points=[];" vertex="1" connectable="0" parent="CMQdmwLlExtstiq8UbgP-27">
          <mxGeometry x="-0.1333" y="-4" relative="1" as="geometry">
            <mxPoint x="-24" y="29" as="offset" />
          </mxGeometry>
        </mxCell>
        <mxCell id="CMQdmwLlExtstiq8UbgP-21" value="Preguntar si ese dia va&amp;nbsp; a estar disponible" style="rhombus;whiteSpace=wrap;html=1;rounded=1;" vertex="1" parent="1">
          <mxGeometry x="54" y="477" width="80" height="80" as="geometry" />
        </mxCell>
        <mxCell id="CMQdmwLlExtstiq8UbgP-30" value="" style="edgeStyle=orthogonalEdgeStyle;rounded=0;orthogonalLoop=1;jettySize=auto;html=1;" edge="1" parent="1" source="CMQdmwLlExtstiq8UbgP-23" target="CMQdmwLlExtstiq8UbgP-29">
          <mxGeometry relative="1" as="geometry" />
        </mxCell>
        <mxCell id="CMQdmwLlExtstiq8UbgP-23" value="Reservar el lugar" style="whiteSpace=wrap;html=1;rounded=1;" vertex="1" parent="1">
          <mxGeometry x="-130" y="502" width="120" height="30" as="geometry" />
        </mxCell>
        <mxCell id="CMQdmwLlExtstiq8UbgP-31" value="" style="edgeStyle=orthogonalEdgeStyle;rounded=0;orthogonalLoop=1;jettySize=auto;html=1;" edge="1" parent="1" source="CMQdmwLlExtstiq8UbgP-29" target="CMQdmwLlExtstiq8UbgP-11">
          <mxGeometry relative="1" as="geometry" />
        </mxCell>
        <mxCell id="CMQdmwLlExtstiq8UbgP-29" value="Anotamos la Dirreccion" style="whiteSpace=wrap;html=1;rounded=1;" vertex="1" parent="1">
          <mxGeometry x="-130" y="557" width="120" height="30" as="geometry" />
        </mxCell>
        <mxCell id="CMQdmwLlExtstiq8UbgP-34" value="" style="edgeStyle=orthogonalEdgeStyle;rounded=0;orthogonalLoop=1;jettySize=auto;html=1;" edge="1" parent="1" source="CMQdmwLlExtstiq8UbgP-32" target="CMQdmwLlExtstiq8UbgP-14">
          <mxGeometry relative="1" as="geometry" />
        </mxCell>
        <mxCell id="CMQdmwLlExtstiq8UbgP-32" value="Definir la Hora para el evento" style="whiteSpace=wrap;html=1;rounded=1;" vertex="1" parent="1">
          <mxGeometry x="-130" y="652" width="120" height="35" as="geometry" />
        </mxCell>
        <mxCell id="CMQdmwLlExtstiq8UbgP-40" value="" style="edgeStyle=orthogonalEdgeStyle;rounded=0;orthogonalLoop=1;jettySize=auto;html=1;" edge="1" parent="1" source="CMQdmwLlExtstiq8UbgP-36" target="CMQdmwLlExtstiq8UbgP-39">
          <mxGeometry relative="1" as="geometry" />
        </mxCell>
        <mxCell id="CMQdmwLlExtstiq8UbgP-42" value="" style="edgeStyle=orthogonalEdgeStyle;rounded=0;orthogonalLoop=1;jettySize=auto;html=1;" edge="1" parent="1" source="CMQdmwLlExtstiq8UbgP-36" target="CMQdmwLlExtstiq8UbgP-41">
          <mxGeometry relative="1" as="geometry" />
        </mxCell>
        <mxCell id="CMQdmwLlExtstiq8UbgP-44" value="" style="edgeStyle=orthogonalEdgeStyle;rounded=0;orthogonalLoop=1;jettySize=auto;html=1;" edge="1" parent="1" source="CMQdmwLlExtstiq8UbgP-36" target="CMQdmwLlExtstiq8UbgP-43">
          <mxGeometry relative="1" as="geometry" />
        </mxCell>
        <mxCell id="CMQdmwLlExtstiq8UbgP-36" value="Preparativos&lt;br&gt;&lt;div style=&quot;text-align: left;&quot;&gt;&lt;span style=&quot;background-color: initial;&quot;&gt;1.- lugar&lt;/span&gt;&lt;/div&gt;&lt;div style=&quot;text-align: left;&quot;&gt;&lt;span style=&quot;background-color: initial;&quot;&gt;2.- Comida&lt;/span&gt;&lt;/div&gt;&lt;div style=&quot;text-align: left;&quot;&gt;&lt;span style=&quot;background-color: initial;&quot;&gt;2.- Vestuarios&lt;/span&gt;&lt;/div&gt;&lt;div style=&quot;text-align: left;&quot;&gt;&lt;span style=&quot;background-color: initial;&quot;&gt;Acontinuacion te indicaremos los pasos&lt;/span&gt;&lt;/div&gt;" style="whiteSpace=wrap;html=1;rounded=1;" vertex="1" parent="1">
          <mxGeometry x="290" y="250" width="250" height="80" as="geometry" />
        </mxCell>
        <mxCell id="CMQdmwLlExtstiq8UbgP-47" style="edgeStyle=orthogonalEdgeStyle;rounded=0;orthogonalLoop=1;jettySize=auto;html=1;exitX=0.5;exitY=1;exitDx=0;exitDy=0;entryX=0.5;entryY=0;entryDx=0;entryDy=0;" edge="1" parent="1" source="CMQdmwLlExtstiq8UbgP-39" target="CMQdmwLlExtstiq8UbgP-10">
          <mxGeometry relative="1" as="geometry" />
        </mxCell>
        <mxCell id="CMQdmwLlExtstiq8UbgP-39" value="Lugar" style="whiteSpace=wrap;html=1;rounded=1;" vertex="1" parent="1">
          <mxGeometry x="34" y="350" width="120" height="30" as="geometry" />
        </mxCell>
        <mxCell id="CMQdmwLlExtstiq8UbgP-49" value="" style="edgeStyle=orthogonalEdgeStyle;rounded=0;orthogonalLoop=1;jettySize=auto;html=1;" edge="1" parent="1" source="CMQdmwLlExtstiq8UbgP-41" target="CMQdmwLlExtstiq8UbgP-48">
          <mxGeometry relative="1" as="geometry" />
        </mxCell>
        <mxCell id="CMQdmwLlExtstiq8UbgP-41" value="Comida" style="whiteSpace=wrap;html=1;rounded=1;" vertex="1" parent="1">
          <mxGeometry x="354" y="350" width="120" height="30" as="geometry" />
        </mxCell>
        <mxCell id="CMQdmwLlExtstiq8UbgP-65" value="" style="edgeStyle=orthogonalEdgeStyle;rounded=0;orthogonalLoop=1;jettySize=auto;html=1;" edge="1" parent="1" source="CMQdmwLlExtstiq8UbgP-43" target="CMQdmwLlExtstiq8UbgP-64">
          <mxGeometry relative="1" as="geometry" />
        </mxCell>
        <mxCell id="CMQdmwLlExtstiq8UbgP-43" value="Vestuario" style="whiteSpace=wrap;html=1;rounded=1;" vertex="1" parent="1">
          <mxGeometry x="840" y="350" width="120" height="30" as="geometry" />
        </mxCell>
        <mxCell id="CMQdmwLlExtstiq8UbgP-59" value="" style="edgeStyle=orthogonalEdgeStyle;rounded=0;orthogonalLoop=1;jettySize=auto;html=1;" edge="1" parent="1" source="CMQdmwLlExtstiq8UbgP-48" target="CMQdmwLlExtstiq8UbgP-58">
          <mxGeometry relative="1" as="geometry" />
        </mxCell>
        <mxCell id="CMQdmwLlExtstiq8UbgP-48" value="Buscar Cosineros" style="whiteSpace=wrap;html=1;rounded=1;" vertex="1" parent="1">
          <mxGeometry x="354" y="410" width="120" height="30" as="geometry" />
        </mxCell>
        <mxCell id="CMQdmwLlExtstiq8UbgP-71" value="" style="edgeStyle=orthogonalEdgeStyle;rounded=0;orthogonalLoop=1;jettySize=auto;html=1;" edge="1" parent="1" source="CMQdmwLlExtstiq8UbgP-56" target="CMQdmwLlExtstiq8UbgP-70">
          <mxGeometry relative="1" as="geometry" />
        </mxCell>
        <mxCell id="CMQdmwLlExtstiq8UbgP-56" value="&quot;firmar los papeles separando el lugar y la fecha&quot;" style="shape=document;whiteSpace=wrap;html=1;boundedLbl=1;" vertex="1" parent="1">
          <mxGeometry x="-130" y="760" width="120" height="80" as="geometry" />
        </mxCell>
        <mxCell id="CMQdmwLlExtstiq8UbgP-62" style="edgeStyle=orthogonalEdgeStyle;rounded=0;orthogonalLoop=1;jettySize=auto;html=1;exitX=1;exitY=0.5;exitDx=0;exitDy=0;entryX=1;entryY=0.5;entryDx=0;entryDy=0;" edge="1" parent="1" source="CMQdmwLlExtstiq8UbgP-58" target="CMQdmwLlExtstiq8UbgP-48">
          <mxGeometry relative="1" as="geometry" />
        </mxCell>
        <mxCell id="CMQdmwLlExtstiq8UbgP-63" value="NO" style="edgeLabel;html=1;align=center;verticalAlign=middle;resizable=0;points=[];" vertex="1" connectable="0" parent="CMQdmwLlExtstiq8UbgP-62">
          <mxGeometry x="-0.8393" y="-4" relative="1" as="geometry">
            <mxPoint as="offset" />
          </mxGeometry>
        </mxCell>
        <mxCell id="CMQdmwLlExtstiq8UbgP-114" value="" style="edgeStyle=orthogonalEdgeStyle;rounded=0;orthogonalLoop=1;jettySize=auto;html=1;" edge="1" parent="1" source="CMQdmwLlExtstiq8UbgP-58" target="CMQdmwLlExtstiq8UbgP-113">
          <mxGeometry relative="1" as="geometry" />
        </mxCell>
        <mxCell id="CMQdmwLlExtstiq8UbgP-58" value="Â¿ya tienes cosineros?" style="rhombus;whiteSpace=wrap;html=1;rounded=1;" vertex="1" parent="1">
          <mxGeometry x="374" y="470" width="80" height="80" as="geometry" />
        </mxCell>
        <mxCell id="CMQdmwLlExtstiq8UbgP-67" value="" style="edgeStyle=orthogonalEdgeStyle;rounded=0;orthogonalLoop=1;jettySize=auto;html=1;" edge="1" parent="1" source="CMQdmwLlExtstiq8UbgP-64" target="CMQdmwLlExtstiq8UbgP-66">
          <mxGeometry relative="1" as="geometry" />
        </mxCell>
        <mxCell id="CMQdmwLlExtstiq8UbgP-64" value="Buscar vestido de XV" style="whiteSpace=wrap;html=1;rounded=1;" vertex="1" parent="1">
          <mxGeometry x="840" y="410" width="120" height="30" as="geometry" />
        </mxCell>
        <mxCell id="CMQdmwLlExtstiq8UbgP-68" style="edgeStyle=orthogonalEdgeStyle;rounded=0;orthogonalLoop=1;jettySize=auto;html=1;exitX=1;exitY=0.5;exitDx=0;exitDy=0;entryX=1;entryY=0.25;entryDx=0;entryDy=0;" edge="1" parent="1" source="CMQdmwLlExtstiq8UbgP-66" target="CMQdmwLlExtstiq8UbgP-64">
          <mxGeometry relative="1" as="geometry" />
        </mxCell>
        <mxCell id="CMQdmwLlExtstiq8UbgP-69" value="NO" style="edgeLabel;html=1;align=center;verticalAlign=middle;resizable=0;points=[];" vertex="1" connectable="0" parent="CMQdmwLlExtstiq8UbgP-68">
          <mxGeometry x="-0.8255" y="-4" relative="1" as="geometry">
            <mxPoint as="offset" />
          </mxGeometry>
        </mxCell>
        <mxCell id="CMQdmwLlExtstiq8UbgP-134" value="" style="edgeStyle=orthogonalEdgeStyle;rounded=0;orthogonalLoop=1;jettySize=auto;html=1;" edge="1" parent="1" source="CMQdmwLlExtstiq8UbgP-66" target="CMQdmwLlExtstiq8UbgP-133">
          <mxGeometry relative="1" as="geometry" />
        </mxCell>
        <mxCell id="CMQdmwLlExtstiq8UbgP-152" value="SI" style="edgeLabel;html=1;align=center;verticalAlign=middle;resizable=0;points=[];" vertex="1" connectable="0" parent="CMQdmwLlExtstiq8UbgP-134">
          <mxGeometry x="0.5094" y="-2" relative="1" as="geometry">
            <mxPoint as="offset" />
          </mxGeometry>
        </mxCell>
        <mxCell id="CMQdmwLlExtstiq8UbgP-66" value="Â¿Ya tienes el vestido?" style="rhombus;whiteSpace=wrap;html=1;rounded=1;" vertex="1" parent="1">
          <mxGeometry x="860" y="470" width="80" height="80" as="geometry" />
        </mxCell>
        <mxCell id="CMQdmwLlExtstiq8UbgP-73" value="" style="edgeStyle=orthogonalEdgeStyle;rounded=0;orthogonalLoop=1;jettySize=auto;html=1;" edge="1" parent="1" source="CMQdmwLlExtstiq8UbgP-70" target="CMQdmwLlExtstiq8UbgP-72">
          <mxGeometry relative="1" as="geometry" />
        </mxCell>
        <mxCell id="CMQdmwLlExtstiq8UbgP-74" value="NO" style="edgeLabel;html=1;align=center;verticalAlign=middle;resizable=0;points=[];" vertex="1" connectable="0" parent="CMQdmwLlExtstiq8UbgP-73">
          <mxGeometry x="-0.6222" y="2" relative="1" as="geometry">
            <mxPoint as="offset" />
          </mxGeometry>
        </mxCell>
        <mxCell id="CMQdmwLlExtstiq8UbgP-96" value="" style="edgeStyle=orthogonalEdgeStyle;rounded=0;orthogonalLoop=1;jettySize=auto;html=1;" edge="1" parent="1" source="CMQdmwLlExtstiq8UbgP-70" target="CMQdmwLlExtstiq8UbgP-87">
          <mxGeometry relative="1" as="geometry" />
        </mxCell>
        <mxCell id="CMQdmwLlExtstiq8UbgP-97" value="SI" style="edgeLabel;html=1;align=center;verticalAlign=middle;resizable=0;points=[];" vertex="1" connectable="0" parent="CMQdmwLlExtstiq8UbgP-96">
          <mxGeometry x="-0.1111" y="-1" relative="1" as="geometry">
            <mxPoint as="offset" />
          </mxGeometry>
        </mxCell>
        <mxCell id="CMQdmwLlExtstiq8UbgP-70" value="Â¿Tienes decorador?" style="rhombus;whiteSpace=wrap;html=1;" vertex="1" parent="1">
          <mxGeometry x="-110" y="880" width="80" height="80" as="geometry" />
        </mxCell>
        <mxCell id="CMQdmwLlExtstiq8UbgP-102" value="" style="edgeStyle=orthogonalEdgeStyle;rounded=0;orthogonalLoop=1;jettySize=auto;html=1;" edge="1" parent="1" source="CMQdmwLlExtstiq8UbgP-72" target="CMQdmwLlExtstiq8UbgP-101">
          <mxGeometry relative="1" as="geometry" />
        </mxCell>
        <mxCell id="CMQdmwLlExtstiq8UbgP-72" value="Buscamos decoradores en internet" style="whiteSpace=wrap;html=1;" vertex="1" parent="1">
          <mxGeometry x="-130" y="1000" width="120" height="60" as="geometry" />
        </mxCell>
        <mxCell id="CMQdmwLlExtstiq8UbgP-162" value="" style="edgeStyle=orthogonalEdgeStyle;rounded=0;orthogonalLoop=1;jettySize=auto;html=1;" edge="1" parent="1" source="CMQdmwLlExtstiq8UbgP-79" target="CMQdmwLlExtstiq8UbgP-161">
          <mxGeometry relative="1" as="geometry" />
        </mxCell>
        <mxCell id="CMQdmwLlExtstiq8UbgP-79" value="&quot;Firmamos los papeles asegurando el dia &quot;" style="shape=document;whiteSpace=wrap;html=1;boundedLbl=1;" vertex="1" parent="1">
          <mxGeometry x="530" y="1210" width="120" height="80" as="geometry" />
        </mxCell>
        <mxCell id="CMQdmwLlExtstiq8UbgP-83" value="" style="edgeStyle=orthogonalEdgeStyle;rounded=0;orthogonalLoop=1;jettySize=auto;html=1;" edge="1" parent="1" source="CMQdmwLlExtstiq8UbgP-87" target="CMQdmwLlExtstiq8UbgP-89">
          <mxGeometry relative="1" as="geometry" />
        </mxCell>
        <mxCell id="CMQdmwLlExtstiq8UbgP-84" value="NO" style="edgeLabel;html=1;align=center;verticalAlign=middle;resizable=0;points=[];" vertex="1" connectable="0" parent="CMQdmwLlExtstiq8UbgP-83">
          <mxGeometry x="-0.6222" y="2" relative="1" as="geometry">
            <mxPoint as="offset" />
          </mxGeometry>
        </mxCell>
        <mxCell id="CMQdmwLlExtstiq8UbgP-87" value="Â¿Tienes Musicos?" style="rhombus;whiteSpace=wrap;html=1;" vertex="1" parent="1">
          <mxGeometry x="60" y="880" width="80" height="80" as="geometry" />
        </mxCell>
        <mxCell id="CMQdmwLlExtstiq8UbgP-100" value="" style="edgeStyle=orthogonalEdgeStyle;rounded=0;orthogonalLoop=1;jettySize=auto;html=1;" edge="1" parent="1" source="CMQdmwLlExtstiq8UbgP-89" target="CMQdmwLlExtstiq8UbgP-99">
          <mxGeometry relative="1" as="geometry" />
        </mxCell>
        <mxCell id="CMQdmwLlExtstiq8UbgP-89" value="Buscamos musicos en internet" style="whiteSpace=wrap;html=1;" vertex="1" parent="1">
          <mxGeometry x="40" y="1000" width="120" height="60" as="geometry" />
        </mxCell>
        <mxCell id="CMQdmwLlExtstiq8UbgP-109" style="edgeStyle=orthogonalEdgeStyle;rounded=0;orthogonalLoop=1;jettySize=auto;html=1;exitX=1;exitY=0.5;exitDx=0;exitDy=0;entryX=1;entryY=0.5;entryDx=0;entryDy=0;" edge="1" parent="1" source="CMQdmwLlExtstiq8UbgP-99" target="CMQdmwLlExtstiq8UbgP-89">
          <mxGeometry relative="1" as="geometry">
            <Array as="points">
              <mxPoint x="180" y="1129" />
              <mxPoint x="180" y="1030" />
            </Array>
          </mxGeometry>
        </mxCell>
        <mxCell id="CMQdmwLlExtstiq8UbgP-110" value="NO" style="edgeLabel;html=1;align=center;verticalAlign=middle;resizable=0;points=[];" vertex="1" connectable="0" parent="CMQdmwLlExtstiq8UbgP-109">
          <mxGeometry x="-0.7358" relative="1" as="geometry">
            <mxPoint as="offset" />
          </mxGeometry>
        </mxCell>
        <mxCell id="CMQdmwLlExtstiq8UbgP-148" style="edgeStyle=orthogonalEdgeStyle;rounded=0;orthogonalLoop=1;jettySize=auto;html=1;exitX=0.5;exitY=1;exitDx=0;exitDy=0;entryX=0.5;entryY=0;entryDx=0;entryDy=0;" edge="1" parent="1" source="CMQdmwLlExtstiq8UbgP-99" target="CMQdmwLlExtstiq8UbgP-132">
          <mxGeometry relative="1" as="geometry" />
        </mxCell>
        <mxCell id="CMQdmwLlExtstiq8UbgP-149" value="SI" style="edgeLabel;html=1;align=center;verticalAlign=middle;resizable=0;points=[];" vertex="1" connectable="0" parent="CMQdmwLlExtstiq8UbgP-148">
          <mxGeometry x="-0.9606" y="4" relative="1" as="geometry">
            <mxPoint as="offset" />
          </mxGeometry>
        </mxCell>
        <mxCell id="CMQdmwLlExtstiq8UbgP-99" value="Â¿Ya tienes musicos?" style="rhombus;whiteSpace=wrap;html=1;" vertex="1" parent="1">
          <mxGeometry x="60" y="1089" width="80" height="80" as="geometry" />
        </mxCell>
        <mxCell id="CMQdmwLlExtstiq8UbgP-103" style="edgeStyle=orthogonalEdgeStyle;rounded=0;orthogonalLoop=1;jettySize=auto;html=1;exitX=0.5;exitY=1;exitDx=0;exitDy=0;entryX=0.5;entryY=0;entryDx=0;entryDy=0;" edge="1" parent="1" source="CMQdmwLlExtstiq8UbgP-101">
          <mxGeometry relative="1" as="geometry">
            <mxPoint x="414" y="1210" as="targetPoint" />
          </mxGeometry>
        </mxCell>
        <mxCell id="CMQdmwLlExtstiq8UbgP-150" value="SI" style="edgeLabel;html=1;align=center;verticalAlign=middle;resizable=0;points=[];" vertex="1" connectable="0" parent="CMQdmwLlExtstiq8UbgP-103">
          <mxGeometry x="-0.9772" y="3" relative="1" as="geometry">
            <mxPoint as="offset" />
          </mxGeometry>
        </mxCell>
        <mxCell id="CMQdmwLlExtstiq8UbgP-107" style="edgeStyle=orthogonalEdgeStyle;rounded=0;orthogonalLoop=1;jettySize=auto;html=1;exitX=0;exitY=0.5;exitDx=0;exitDy=0;entryX=0;entryY=0.5;entryDx=0;entryDy=0;" edge="1" parent="1" source="CMQdmwLlExtstiq8UbgP-101" target="CMQdmwLlExtstiq8UbgP-72">
          <mxGeometry relative="1" as="geometry" />
        </mxCell>
        <mxCell id="CMQdmwLlExtstiq8UbgP-108" value="NO" style="edgeLabel;html=1;align=center;verticalAlign=middle;resizable=0;points=[];" vertex="1" connectable="0" parent="CMQdmwLlExtstiq8UbgP-107">
          <mxGeometry x="-0.8491" y="1" relative="1" as="geometry">
            <mxPoint as="offset" />
          </mxGeometry>
        </mxCell>
        <mxCell id="CMQdmwLlExtstiq8UbgP-101" value="Â¿Ya tienes decorador?" style="rhombus;whiteSpace=wrap;html=1;" vertex="1" parent="1">
          <mxGeometry x="-110" y="1089" width="80" height="80" as="geometry" />
        </mxCell>
        <mxCell id="CMQdmwLlExtstiq8UbgP-116" value="" style="edgeStyle=orthogonalEdgeStyle;rounded=0;orthogonalLoop=1;jettySize=auto;html=1;" edge="1" parent="1" source="CMQdmwLlExtstiq8UbgP-113" target="CMQdmwLlExtstiq8UbgP-115">
          <mxGeometry relative="1" as="geometry" />
        </mxCell>
        <mxCell id="CMQdmwLlExtstiq8UbgP-113" value="deside la comida que se servira&amp;nbsp;" style="whiteSpace=wrap;html=1;rounded=1;" vertex="1" parent="1">
          <mxGeometry x="354" y="570" width="120" height="40" as="geometry" />
        </mxCell>
        <mxCell id="CMQdmwLlExtstiq8UbgP-118" value="" style="edgeStyle=orthogonalEdgeStyle;rounded=0;orthogonalLoop=1;jettySize=auto;html=1;" edge="1" parent="1" source="CMQdmwLlExtstiq8UbgP-115" target="CMQdmwLlExtstiq8UbgP-117">
          <mxGeometry relative="1" as="geometry" />
        </mxCell>
        <mxCell id="CMQdmwLlExtstiq8UbgP-119" value="NO" style="edgeLabel;html=1;align=center;verticalAlign=middle;resizable=0;points=[];" vertex="1" connectable="0" parent="CMQdmwLlExtstiq8UbgP-118">
          <mxGeometry x="-0.2" y="1" relative="1" as="geometry">
            <mxPoint y="1" as="offset" />
          </mxGeometry>
        </mxCell>
        <mxCell id="CMQdmwLlExtstiq8UbgP-140" value="" style="edgeStyle=orthogonalEdgeStyle;rounded=0;orthogonalLoop=1;jettySize=auto;html=1;" edge="1" parent="1" source="CMQdmwLlExtstiq8UbgP-115" target="CMQdmwLlExtstiq8UbgP-139">
          <mxGeometry relative="1" as="geometry" />
        </mxCell>
        <mxCell id="CMQdmwLlExtstiq8UbgP-146" value="SI" style="edgeLabel;html=1;align=center;verticalAlign=middle;resizable=0;points=[];" vertex="1" connectable="0" parent="CMQdmwLlExtstiq8UbgP-140">
          <mxGeometry x="-0.3333" y="2" relative="1" as="geometry">
            <mxPoint as="offset" />
          </mxGeometry>
        </mxCell>
        <mxCell id="CMQdmwLlExtstiq8UbgP-115" value="Ya saves que van a cosinar" style="rhombus;whiteSpace=wrap;html=1;rounded=1;" vertex="1" parent="1">
          <mxGeometry x="374" y="629.5" width="80" height="80" as="geometry" />
        </mxCell>
        <mxCell id="CMQdmwLlExtstiq8UbgP-141" style="edgeStyle=orthogonalEdgeStyle;rounded=0;orthogonalLoop=1;jettySize=auto;html=1;exitX=1;exitY=0.5;exitDx=0;exitDy=0;entryX=1;entryY=0.5;entryDx=0;entryDy=0;" edge="1" parent="1" source="CMQdmwLlExtstiq8UbgP-117" target="CMQdmwLlExtstiq8UbgP-139">
          <mxGeometry relative="1" as="geometry" />
        </mxCell>
        <mxCell id="CMQdmwLlExtstiq8UbgP-117" value="&quot;Deberias pedir consejos de los chefs&quot;" style="shape=document;whiteSpace=wrap;html=1;boundedLbl=1;rounded=1;" vertex="1" parent="1">
          <mxGeometry x="514" y="629.5" width="120" height="80" as="geometry" />
        </mxCell>
        <mxCell id="CMQdmwLlExtstiq8UbgP-160" style="edgeStyle=orthogonalEdgeStyle;rounded=0;orthogonalLoop=1;jettySize=auto;html=1;exitX=1;exitY=0.5;exitDx=0;exitDy=0;entryX=0;entryY=0.5;entryDx=0;entryDy=0;" edge="1" parent="1" source="CMQdmwLlExtstiq8UbgP-132" target="CMQdmwLlExtstiq8UbgP-79">
          <mxGeometry relative="1" as="geometry" />
        </mxCell>
        <mxCell id="CMQdmwLlExtstiq8UbgP-132" value="&lt;span style=&quot;color: rgb(240, 240, 240); font-family: Helvetica; font-size: 12px; font-style: normal; font-variant-ligatures: normal; font-variant-caps: normal; font-weight: 400; letter-spacing: normal; orphans: 2; text-align: center; text-indent: 0px; text-transform: none; widows: 2; word-spacing: 0px; -webkit-text-stroke-width: 0px; background-color: rgb(27, 29, 30); text-decoration-thickness: initial; text-decoration-style: initial; text-decoration-color: initial; float: none; display: inline !important;&quot;&gt;&quot;Le Pasamos el dia y la hora del evento&quot;&lt;/span&gt;" style="shape=document;whiteSpace=wrap;html=1;boundedLbl=1;" vertex="1" parent="1">
          <mxGeometry x="354" y="1210" width="120" height="80" as="geometry" />
        </mxCell>
        <mxCell id="CMQdmwLlExtstiq8UbgP-154" value="" style="edgeStyle=orthogonalEdgeStyle;rounded=0;orthogonalLoop=1;jettySize=auto;html=1;" edge="1" parent="1" source="CMQdmwLlExtstiq8UbgP-133" target="CMQdmwLlExtstiq8UbgP-153">
          <mxGeometry relative="1" as="geometry" />
        </mxCell>
        <mxCell id="CMQdmwLlExtstiq8UbgP-133" value="Busca personas que te ayuden con el&lt;br&gt;maquillaje y el vestido" style="whiteSpace=wrap;html=1;rounded=1;" vertex="1" parent="1">
          <mxGeometry x="840" y="577" width="120" height="60" as="geometry" />
        </mxCell>
        <mxCell id="CMQdmwLlExtstiq8UbgP-143" value="" style="edgeStyle=orthogonalEdgeStyle;rounded=0;orthogonalLoop=1;jettySize=auto;html=1;" edge="1" parent="1" source="CMQdmwLlExtstiq8UbgP-139" target="CMQdmwLlExtstiq8UbgP-142">
          <mxGeometry relative="1" as="geometry" />
        </mxCell>
        <mxCell id="CMQdmwLlExtstiq8UbgP-139" value="Debes Pedriles que Preparen el pastel" style="whiteSpace=wrap;html=1;rounded=1;" vertex="1" parent="1">
          <mxGeometry x="356" y="750" width="116" height="40.5" as="geometry" />
        </mxCell>
        <mxCell id="CMQdmwLlExtstiq8UbgP-144" style="edgeStyle=orthogonalEdgeStyle;rounded=0;orthogonalLoop=1;jettySize=auto;html=1;exitX=0;exitY=0.5;exitDx=0;exitDy=0;entryX=0;entryY=0.5;entryDx=0;entryDy=0;" edge="1" parent="1" source="CMQdmwLlExtstiq8UbgP-142" target="CMQdmwLlExtstiq8UbgP-139">
          <mxGeometry relative="1" as="geometry" />
        </mxCell>
        <mxCell id="CMQdmwLlExtstiq8UbgP-145" value="NO" style="edgeLabel;html=1;align=center;verticalAlign=middle;resizable=0;points=[];" vertex="1" connectable="0" parent="CMQdmwLlExtstiq8UbgP-144">
          <mxGeometry x="-0.8544" y="-2" relative="1" as="geometry">
            <mxPoint as="offset" />
          </mxGeometry>
        </mxCell>
        <mxCell id="CMQdmwLlExtstiq8UbgP-147" style="edgeStyle=orthogonalEdgeStyle;rounded=0;orthogonalLoop=1;jettySize=auto;html=1;exitX=0.5;exitY=1;exitDx=0;exitDy=0;entryX=0.5;entryY=0;entryDx=0;entryDy=0;" edge="1" parent="1" source="CMQdmwLlExtstiq8UbgP-142" target="CMQdmwLlExtstiq8UbgP-132">
          <mxGeometry relative="1" as="geometry" />
        </mxCell>
        <mxCell id="CMQdmwLlExtstiq8UbgP-151" value="SI" style="edgeLabel;html=1;align=center;verticalAlign=middle;resizable=0;points=[];" vertex="1" connectable="0" parent="CMQdmwLlExtstiq8UbgP-147">
          <mxGeometry x="-0.7619" y="2" relative="1" as="geometry">
            <mxPoint as="offset" />
          </mxGeometry>
        </mxCell>
        <mxCell id="CMQdmwLlExtstiq8UbgP-142" value="Â¿Pediste que te preparen el pastel?" style="rhombus;whiteSpace=wrap;html=1;rounded=1;" vertex="1" parent="1">
          <mxGeometry x="374" y="850.75" width="80" height="80" as="geometry" />
        </mxCell>
        <mxCell id="CMQdmwLlExtstiq8UbgP-155" style="edgeStyle=orthogonalEdgeStyle;rounded=0;orthogonalLoop=1;jettySize=auto;html=1;exitX=1;exitY=0.5;exitDx=0;exitDy=0;entryX=1;entryY=0.5;entryDx=0;entryDy=0;" edge="1" parent="1" source="CMQdmwLlExtstiq8UbgP-153" target="CMQdmwLlExtstiq8UbgP-133">
          <mxGeometry relative="1" as="geometry">
            <Array as="points">
              <mxPoint x="970" y="747" />
              <mxPoint x="970" y="607" />
            </Array>
          </mxGeometry>
        </mxCell>
        <mxCell id="CMQdmwLlExtstiq8UbgP-159" value="NO" style="edgeLabel;html=1;align=center;verticalAlign=middle;resizable=0;points=[];" vertex="1" connectable="0" parent="CMQdmwLlExtstiq8UbgP-155">
          <mxGeometry x="-0.8" y="-1" relative="1" as="geometry">
            <mxPoint as="offset" />
          </mxGeometry>
        </mxCell>
        <mxCell id="CMQdmwLlExtstiq8UbgP-157" value="" style="edgeStyle=orthogonalEdgeStyle;rounded=0;orthogonalLoop=1;jettySize=auto;html=1;entryX=0.5;entryY=0;entryDx=0;entryDy=0;" edge="1" parent="1" source="CMQdmwLlExtstiq8UbgP-153" target="CMQdmwLlExtstiq8UbgP-132">
          <mxGeometry relative="1" as="geometry">
            <mxPoint x="900" y="840" as="targetPoint" />
            <Array as="points">
              <mxPoint x="900" y="1020" />
              <mxPoint x="414" y="1020" />
            </Array>
          </mxGeometry>
        </mxCell>
        <mxCell id="CMQdmwLlExtstiq8UbgP-158" value="SI" style="edgeLabel;html=1;align=center;verticalAlign=middle;resizable=0;points=[];" vertex="1" connectable="0" parent="CMQdmwLlExtstiq8UbgP-157">
          <mxGeometry x="-0.5111" y="1" relative="1" as="geometry">
            <mxPoint as="offset" />
          </mxGeometry>
        </mxCell>
        <mxCell id="CMQdmwLlExtstiq8UbgP-153" value="Tienes quien te ayude con el vestuario y maquillaje" style="rhombus;whiteSpace=wrap;html=1;rounded=1;" vertex="1" parent="1">
          <mxGeometry x="860" y="707" width="80" height="80" as="geometry" />
        </mxCell>
        <mxCell id="CMQdmwLlExtstiq8UbgP-161" value="Repartimos las invitaciones&amp;nbsp;" style="shape=document;whiteSpace=wrap;html=1;boundedLbl=1;" vertex="1" parent="1">
          <mxGeometry x="730" y="1210" width="120" height="80" as="geometry" />
        </mxCell>
      </root>
    </mxGraphModel>
  </diagram>
</mxfile>
